<svg width="15" height="12" viewBox="0 0 15 12" fill="none" xmlns="http://www.w3.org/2000/svg">
<path d="M13.7529 6.54917C13.7529 4.86493 12.632 3.43892 11.0975 2.9746V0.666536C10.1701 0.166454 9.24254 1.63017e-08 8.41872 1.63017e-08C6.77819 1.63017e-08 5.54877 0.660039 5.54877 0.660039C5.54877 0.660039 4.31916 9.02514e-05 2.67884 1.63017e-08C1.8549 -6.01404e-05 0.927617 0.166363 0 0.666536V9.01671C0 9.01671 1.21878 8.3567 2.86268 8.3567C3.68478 8.3567 4.613 8.52162 5.54874 9.01671C5.98869 8.78396 6.42666 8.62629 6.85317 8.52228C7.51378 9.57785 8.68377 10.2837 10.0184 10.2837C10.7865 10.2837 11.501 10.0501 12.0952 9.65085L14.0799 11.6823L14.7384 11.0382L12.7897 9.04354C13.3863 8.38145 13.7529 7.5084 13.7529 6.54917ZM0.92115 7.69639V1.25129C1.47182 1.03196 2.06088 0.92112 2.67875 0.92115C3.96478 0.92124 4.96332 1.39738 5.08836 1.45952V7.81914C4.38061 7.56886 3.63689 7.43552 2.86268 7.43552C2.12284 7.43552 1.45751 7.55307 0.92115 7.69639ZM6.45933 7.67949C6.30812 7.72093 6.15806 7.76611 6.00951 7.81637V1.45943C6.15123 1.3892 7.14352 0.92112 8.41869 0.92112C9.03662 0.92112 9.62571 1.03196 10.1764 1.25126V2.82219C10.1236 2.81997 10.0717 2.81419 10.0184 2.81419C7.95885 2.81419 6.28343 4.48962 6.28343 6.54917C6.28343 6.94317 6.34569 7.32264 6.45933 7.67949ZM7.87575 8.36837C7.65834 8.11276 7.4875 7.81764 7.37199 7.49583C7.26561 7.19947 7.20461 6.88169 7.20461 6.54917C7.20461 4.99764 8.4667 3.73534 10.0184 3.73534C10.0718 3.73534 10.1238 3.74039 10.1764 3.74334C10.5008 3.76148 10.8114 3.83198 11.0975 3.95133C12.1147 4.37559 12.8318 5.37991 12.8318 6.54914C12.8318 8.10043 11.5697 9.36252 10.0184 9.36252C9.16045 9.36255 8.39225 8.97556 7.87575 8.36837Z" fill="white"/>
</svg>
