<svg width="7" height="6" viewBox="0 0 7 6" fill="none" xmlns="http://www.w3.org/2000/svg">
<path d="M1.33965 5.10786H5.66036C5.87712 5.10786 6.05347 4.93152 6.05347 4.71476V0.947746C6.05347 0.730988 5.87712 0.554642 5.66036 0.554642H4.38846C4.17171 0.554642 3.99536 0.730988 3.99536 0.947746V1.21964C3.99536 1.2919 3.93658 1.35068 3.86432 1.35068H3.13569C3.06344 1.35068 3.00466 1.2919 3.00466 1.21964V0.947746C3.00466 0.730988 2.82831 0.554642 2.61155 0.554642H1.33965C1.12289 0.554642 0.946548 0.730988 0.946548 0.947746V4.71476C0.946548 4.93152 1.12289 5.10786 1.33965 5.10786ZM3.50002 2.32793L4.26967 3.1958H3.86791V4.27713H3.13197V3.19586H2.73032L3.50002 2.32793Z" fill="white"/>
</svg>
