<svg width="14" height="13" viewBox="0 0 14 13" fill="none" xmlns="http://www.w3.org/2000/svg">
<path d="M11.85 4.90658C11.9534 4.9063 12.053 4.94414 12.1289 5.0125C12.2047 5.08086 12.2512 5.17467 12.259 5.27506V10.8819C12.2592 11.1914 12.1361 11.4889 11.9157 11.7118C11.6952 11.9347 11.3946 12.0656 11.077 12.0769H2.85257C2.53481 12.0771 2.22937 11.9572 2.00053 11.7425C1.77168 11.5278 1.63729 11.235 1.62564 10.9257V5.30493C1.62535 5.20426 1.6642 5.10722 1.73439 5.03331C1.80457 4.95941 1.90088 4.91413 2.00394 4.90658H11.85ZM8.68045 6.56771L8.65591 6.58763L6.31453 9.0594L5.2512 8.06352C5.1973 8.01211 5.12594 7.9817 5.05059 7.97803C4.97524 7.97436 4.90112 7.99768 4.84223 8.0436L4.81973 8.06352L4.38213 8.44594C4.35435 8.46691 4.33152 8.49345 4.31519 8.52377C4.29886 8.55408 4.2894 8.58746 4.28746 8.62165C4.28553 8.65583 4.29115 8.69002 4.30395 8.7219C4.31676 8.75378 4.33644 8.78262 4.36168 8.80644L4.38213 8.82835L5.88102 10.2106C5.99751 10.3231 6.15458 10.3868 6.31862 10.3879C6.39997 10.3901 6.48087 10.3754 6.55595 10.3448C6.63104 10.3143 6.69861 10.2685 6.75418 10.2106L7.96475 8.95782L8.05267 8.87018L8.13856 8.78055L8.25103 8.66503L8.29397 8.62121L8.37985 8.53357L9.52907 7.35246C9.57103 7.30159 9.59524 7.23901 9.59818 7.17382C9.60113 7.10863 9.58265 7.04422 9.54543 6.98996L9.52907 6.97004L9.09147 6.58763C9.03745 6.53567 8.96568 6.50492 8.88986 6.50125C8.81404 6.49758 8.73949 6.52124 8.68045 6.56771ZM11.85 0.923065C12.1754 0.923065 12.4875 1.04897 12.7176 1.27309C12.9477 1.4972 13.0769 1.80117 13.0769 2.11812V3.31317C13.0769 3.41882 13.0338 3.52015 12.9571 3.59485C12.8804 3.66956 12.7764 3.71153 12.668 3.71153H1.21667C1.1082 3.71153 1.00418 3.66956 0.927479 3.59485C0.850782 3.52015 0.807693 3.41882 0.807693 3.31317V2.11812C0.807693 1.80117 0.936958 1.4972 1.16705 1.27309C1.39714 1.04897 1.70922 0.923065 2.03462 0.923065H11.85Z" fill="white"/>
</svg>
