<svg width="11" height="11" viewBox="0 0 11 11" fill="none" xmlns="http://www.w3.org/2000/svg">
<path d="M4.71382 5.89214H3.44192C3.22516 5.89214 3.04881 6.06848 3.04881 6.28524V6.55714C3.04881 6.62939 2.99003 6.68817 2.91778 6.68817H2.18915C2.11689 6.68817 2.05811 6.62939 2.05811 6.55714V6.28524C2.05811 6.06848 1.88176 5.89214 1.66501 5.89214H0.393104C0.176347 5.89214 0 6.06848 0 6.28524V10.0523C0 10.269 0.176347 10.4454 0.393104 10.4454H4.71382C4.93058 10.4454 5.10692 10.269 5.10692 10.0523V6.28524C5.10692 6.06848 4.93058 5.89214 4.71382 5.89214ZM2.92139 8.53327V9.6146H2.18545V8.53332H1.7838L2.5535 7.6654L3.32315 8.53327H2.92139Z" fill="white"/>
<path d="M10.6069 5.89214H9.335C9.11824 5.89214 8.94189 6.06848 8.94189 6.28524V6.55714C8.94189 6.62939 8.88311 6.68817 8.81086 6.68817H8.08223C8.00997 6.68817 7.95119 6.62939 7.95119 6.55714V6.28524C7.95119 6.06848 7.77485 5.89214 7.55809 5.89214H6.28619C6.06943 5.89214 5.89308 6.06848 5.89308 6.28524V10.0523C5.89308 10.269 6.06943 10.4454 6.28619 10.4454H10.6069C10.8237 10.4454 11 10.269 11 10.0523V6.28524C11 6.06848 10.8237 5.89214 10.6069 5.89214ZM8.81448 8.53327V9.6146H8.07853V8.53332H7.67688L8.44658 7.6654L9.21623 8.53327H8.81448Z" fill="white"/>
<path d="M3.33965 5.10786H7.66036C7.87712 5.10786 8.05347 4.93152 8.05347 4.71476V0.947746C8.05347 0.730988 7.87712 0.554642 7.66036 0.554642H6.38846C6.17171 0.554642 5.99536 0.730988 5.99536 0.947746V1.21964C5.99536 1.2919 5.93658 1.35068 5.86432 1.35068H5.13569C5.06344 1.35068 5.00466 1.2919 5.00466 1.21964V0.947746C5.00466 0.730988 4.82831 0.554642 4.61155 0.554642H3.33965C3.12289 0.554642 2.94655 0.730988 2.94655 0.947746V4.71476C2.94655 4.93152 3.12289 5.10786 3.33965 5.10786ZM5.50002 2.32793L6.26967 3.1958H5.86791V4.27713H5.13197V3.19586H4.73032L5.50002 2.32793Z" fill="white"/>
</svg>
