<svg width="11" height="11" viewBox="0 0 11 11" fill="none" xmlns="http://www.w3.org/2000/svg">
<path d="M9.46431 0H1.53573C1.1557 0 0.848206 0.307513 0.848206 0.687546V2.55187H10.1518V0.687546C10.1518 0.307513 9.84433 0 9.46431 0Z" fill="white"/>
<path d="M0.848206 10.3125C0.848206 10.6925 1.15572 11 1.53573 11H9.46433C9.84434 11 10.1519 10.6925 10.1519 10.3125V3.54108H0.848206V10.3125ZM9.02511 9.72211H3.86724V8.94779H9.02512V9.72211H9.02511ZM9.02511 7.65769H3.86724V6.88337H9.02512V7.65769H9.02511ZM9.02511 5.59327H3.86724V4.81896H9.02512V5.59327H9.02511ZM1.97485 4.81896H2.74058V5.59327H1.97485V4.81896ZM1.97485 6.88337H2.74058V7.65769H1.97485V6.88337ZM1.97485 8.94779H2.74058V9.72211H1.97485V8.94779Z" fill="white"/>
</svg>
