<svg width="9" height="14" viewBox="0 0 9 14" fill="none" xmlns="http://www.w3.org/2000/svg">
<path d="M0.529554 0.371588C0.412287 0.485823 0.318702 0.622064 0.254155 0.772513C0.189608 0.922961 0.155366 1.08466 0.15339 1.24836C0.151414 1.41206 0.181743 1.57454 0.242641 1.7265C0.303538 1.87847 0.393808 2.01693 0.508283 2.13396L5.2994 7.04214L0.391219 11.8333C0.154693 12.0641 0.0195731 12.3795 0.0155841 12.71C0.0115951 13.0405 0.139064 13.3591 0.369948 13.5956C0.600832 13.8322 0.91622 13.9673 1.24673 13.9713C1.57724 13.9752 1.89579 13.8478 2.13232 13.6169L7.93864 7.94905C8.05591 7.83482 8.1495 7.69858 8.21404 7.54813C8.27859 7.39768 8.31283 7.23598 8.31481 7.07228C8.31678 6.90858 8.28646 6.7461 8.22556 6.59414C8.16466 6.44218 8.07439 6.30372 7.95992 6.18668L2.29208 0.380359C1.82284 -0.100339 1.0229 -0.109993 0.529554 0.371588Z" fill="#76A0E9"/>
</svg>
