<svg width="8" height="7" viewBox="0 0 8 7" fill="none" xmlns="http://www.w3.org/2000/svg">
<path fill-rule="evenodd" clip-rule="evenodd" d="M6.52 0.227779C6.65542 0.0975769 6.8358 0.0245505 7.02367 0.0238696C7.21153 0.0231886 7.39244 0.0949056 7.52881 0.224123C7.66517 0.35334 7.74652 0.530124 7.75595 0.717753C7.76538 0.905381 7.70217 1.08943 7.57944 1.23167L3.20388 5.85L3.19611 5.85667L3.18944 5.86389C3.05413 5.99971 2.87069 6.07666 2.67898 6.07801C2.48727 6.07936 2.30276 6.00501 2.16555 5.87111L2.15611 5.86167L0.213884 3.92C0.146106 3.8524 0.0923303 3.77208 0.055639 3.68366C0.0189476 3.59524 6.10352e-05 3.50045 6.10352e-05 3.40472C6.10352e-05 3.30899 0.0189476 3.2142 0.055639 3.12578C0.0923303 3.03736 0.146106 2.95705 0.213884 2.88945C0.281489 2.82167 0.361801 2.76789 0.450221 2.7312C0.538641 2.69451 0.633431 2.67562 0.729162 2.67562C0.824893 2.67562 0.919683 2.69451 1.0081 2.7312C1.09652 2.76789 1.17684 2.82167 1.24444 2.88945L2.65944 4.30389L6.52 0.227779Z" fill="white"/>
</svg>
